<?xml version="1.0" encoding="UTF-8" standalone="no"?><!DOCTYPE svg PUBLIC "-//W3C//DTD SVG 1.1//EN" "http://www.w3.org/Graphics/SVG/1.1/DTD/svg11.dtd"><svg width="100%" height="100%" viewBox="0 0 360 100" version="1.1" xmlns="http://www.w3.org/2000/svg" xmlns:xlink="http://www.w3.org/1999/xlink" xml:space="preserve" xmlns:serif="http://www.serif.com/" style="fill-rule:evenodd;clip-rule:evenodd;stroke-linejoin:round;stroke-miterlimit:2;"><rect id="Artboard2" x="0" y="0" width="360" height="100" style="fill:none;"/><clipPath id="_clip1"><rect x="0" y="0" width="360" height="100"/></clipPath><g clip-path="url(#_clip1)"><path d="M24.881,60.543l-2.304,-13.103l-12.164,0l-2.119,13.103l-8.294,-0l10.229,-56.567l12.071,-0l10.966,56.567l-8.385,-0Zm160.986,-0l-8.294,-0l0,-60.453l8.294,0l-0,60.453Zm16.402,-0l-8.293,-0l-0,-44.097l8.293,-0l0,44.097Zm-64.228,-44.187l1.843,-0l-0,7.048l-3.318,-0c-3.87,-0 -5.805,2.229 -5.805,6.687l-0,30.452l-8.294,-0l0,-44.097l8.294,-0l-0,5.422c0.491,-1.567 1.367,-2.877 2.626,-3.931c1.26,-1.054 2.811,-1.581 4.654,-1.581Zm-20.55,6.686l-6.174,0l0,27.922c0,1.085 0.169,1.792 0.507,2.124c0.338,0.331 1.06,0.497 2.166,0.497l3.501,-0l0,6.958l-5.897,-0c-5.775,-0 -8.662,-2.651 -8.662,-7.952l-0,-29.549l-4.239,0l-0,-6.596l4.239,-0l-0,-7.5l8.385,-0l0,7.5l6.174,-0l0,6.596Zm-30.409,28.645l-0,-7.319c-0,-1.085 -0.184,-1.792 -0.553,-2.124c-0.369,-0.331 -1.106,-0.497 -2.212,-0.497l-4.699,0c-5.714,0 -8.57,-2.65 -8.57,-7.952l-0,-9.307c-0,-5.361 2.856,-8.042 8.57,-8.042l6.727,-0c5.774,-0 8.662,2.681 8.662,8.042l-0,4.247l-8.109,0l-0,-3.434c-0,-1.084 -0.185,-1.792 -0.553,-2.123c-0.369,-0.331 -1.106,-0.497 -2.212,-0.497l-2.212,-0c-1.105,-0 -1.843,0.166 -2.211,0.497c-0.369,0.331 -0.553,1.039 -0.553,2.123l-0,7.591c-0,1.084 0.184,1.792 0.553,2.123c0.368,0.332 1.106,0.497 2.211,0.497l4.792,0c5.652,0 8.478,2.681 8.478,8.043l0,9.036c0,5.301 -2.857,7.952 -8.57,7.952l-6.819,-0c-5.713,-0 -8.57,-2.651 -8.57,-7.952l0,-4.338l8.109,0l0,3.434c0,1.084 0.185,1.792 0.553,2.124c0.369,0.331 1.106,0.497 2.212,0.497l2.211,-0c1.106,-0 1.843,-0.166 2.212,-0.497c0.369,-0.332 0.553,-1.04 0.553,-2.124Zm74.088,-35.241l8.294,-0l-0,44.097l-8.294,-0l0,-3.525c-0.798,2.35 -2.703,3.525 -5.713,3.525l-3.317,-0c-5.529,-0 -8.294,-2.651 -8.294,-7.952l0,-28.103c0,-5.361 2.765,-8.042 8.294,-8.042l3.317,-0c3.01,-0 4.915,1.175 5.713,3.524l0,-3.524Zm-105.511,-0l8.293,-0l0,44.097l-8.293,-0l-0,-3.525c-0.799,2.35 -2.703,3.525 -5.714,3.525l-3.317,-0c-5.529,-0 -8.294,-2.651 -8.294,-7.952l0,-36.145l8.294,-0l-0,34.88c-0,1.084 0.184,1.792 0.553,2.123c0.368,0.331 1.106,0.497 2.211,0.497l3.226,0c1.105,0 1.889,-0.241 2.35,-0.723c0.46,-0.482 0.691,-1.295 0.691,-2.44l-0,-34.337Zm171.491,-0l8.293,-0l0,44.097l-8.293,-0l-0,-3.525c-0.799,2.35 -2.703,3.525 -5.713,3.525l-3.318,-0c-5.529,-0 -8.293,-2.651 -8.293,-7.952l-0,-28.103c-0,-5.361 2.764,-8.042 8.293,-8.042l3.318,-0c3.01,-0 4.914,1.175 5.713,3.524l-0,-3.524Zm-72.246,37.5l3.226,0c1.105,0 1.889,-0.241 2.349,-0.723c0.461,-0.482 0.691,-1.295 0.691,-2.44l0,-24.578c0,-1.145 -0.23,-1.958 -0.691,-2.44c-0.46,-0.482 -1.244,-0.723 -2.349,-0.723l-3.226,0c-1.106,0 -1.843,0.166 -2.211,0.497c-0.369,0.332 -0.553,1.039 -0.553,2.124l-0,25.663c-0,1.084 0.184,1.792 0.553,2.123c0.368,0.331 1.105,0.497 2.211,0.497Zm65.98,0l3.225,0c1.106,0 1.889,-0.241 2.35,-0.723c0.461,-0.482 0.691,-1.295 0.691,-2.44l-0,-24.578c-0,-1.145 -0.23,-1.958 -0.691,-2.44c-0.461,-0.482 -1.244,-0.723 -2.35,-0.723l-3.225,0c-1.106,0 -1.843,0.166 -2.212,0.497c-0.368,0.332 -0.553,1.039 -0.553,2.124l0,25.663c0,1.084 0.185,1.792 0.553,2.123c0.369,0.331 1.106,0.497 2.212,0.497Zm-209.457,-13.102l10.044,-0l-5.253,-29.82l-4.791,29.82Zm182.365,-32.802l-0,-8.042l8.662,0l-0,8.042l-8.662,0Z" style="fill:#334155;fill-rule:nonzero;"/><path d="M273.65,42.674l-0,6.69l-4.965,0l0,11.212l-7.713,-0l0,-11.212l-18.972,0l-0,-6.781l15.958,-38.607l7.979,-0l-16.313,38.698l11.348,-0l0,-10.85l7.713,-0l0,10.85l4.965,-0Zm58.778,-38.698l19.327,-0c5.497,-0 8.245,2.652 8.245,7.956l-0,40.687c-0,5.305 -2.748,7.957 -8.245,7.957l-19.327,-0l0,-56.6Zm-13.741,-0l8.067,-0l-8.865,56.6l-11.082,-0l-6.206,-42.495l-6.117,42.495l-11.082,-0l-8.866,-56.6l8.245,-0l6.206,49.186l7.181,-49.186l8.866,-0l7.181,49.186l6.472,-49.186Zm33.245,47.558l0,-38.517c0,-1.085 -0.177,-1.793 -0.532,-2.124c-0.354,-0.332 -1.063,-0.498 -2.127,-0.498l-8.777,0l-0,43.761l8.777,0c1.064,0 1.773,-0.165 2.127,-0.497c0.355,-0.331 0.532,-1.04 0.532,-2.125Z" style="fill:#ea580c;fill-rule:nonzero;"/><path d="M256.724,84.056c1.49,2.553 3.161,4.9 5.014,7.042c1.852,2.142 3.714,4.005 5.586,5.589c0.153,0.117 0.296,0.213 0.429,0.286c0.134,0.073 0.296,0.154 0.487,0.242c0.115,0.059 0.172,0.117 0.172,0.176c0.039,0.176 -0.095,0.396 -0.401,0.66c-0.305,0.264 -0.687,0.536 -1.146,0.814c-0.458,0.279 -0.926,0.529 -1.403,0.749c-0.478,0.22 -0.85,0.344 -1.118,0.374c-0.381,0.088 -1.012,-0.294 -1.89,-1.145c-2.521,-2.405 -4.679,-4.965 -6.474,-7.679c-1.796,-2.714 -3.362,-5.494 -4.698,-8.34c-0.917,2.054 -1.757,4.093 -2.521,6.117c-0.764,2.025 -1.395,3.903 -1.891,5.634c-0.115,0.381 -0.477,0.572 -1.089,0.572c-0.343,-0 -0.735,-0.059 -1.174,-0.176c-0.439,-0.118 -0.85,-0.264 -1.232,-0.44c-0.382,-0.176 -0.707,-0.382 -0.974,-0.617c-0.267,-0.234 -0.401,-0.469 -0.401,-0.704c-0,-1.232 0.143,-2.743 0.43,-4.533c0.286,-1.789 0.668,-3.667 1.146,-5.633c0.477,-1.965 1.012,-3.916 1.604,-5.853c0.592,-1.936 1.193,-3.675 1.805,-5.215c0.611,-1.54 1.203,-2.794 1.776,-3.763c0.573,-0.968 1.05,-1.452 1.432,-1.452c0.267,0 0.688,0.066 1.26,0.198c0.573,0.132 1.127,0.286 1.662,0.462c0.535,0.176 1.012,0.367 1.432,0.572c0.42,0.206 0.631,0.396 0.631,0.572c-0,0.088 -0.039,0.162 -0.115,0.22c-0.153,0.147 -0.287,0.272 -0.401,0.375c-0.115,0.102 -0.21,0.227 -0.287,0.374c-0.534,0.733 -1.098,1.723 -1.69,2.97c-0.592,1.247 -1.165,2.626 -1.719,4.137c-0.553,1.511 -1.088,3.095 -1.604,4.753c-0.515,1.658 -0.964,3.264 -1.346,4.819c0.764,-1.936 1.594,-3.851 2.492,-5.743c0.898,-1.893 1.862,-3.763 2.893,-5.611c0.764,-1.35 1.595,-2.597 2.493,-3.741c0.897,-1.144 1.785,-2.098 2.664,-2.861c0.649,-0.557 1.375,-0.975 2.177,-1.254c0.802,-0.279 1.604,-0.418 2.406,-0.418c1.681,0 2.96,0.433 3.839,1.298c0.879,0.866 1.394,1.944 1.547,3.235c0.153,1.291 -0.019,2.699 -0.516,4.225c-0.496,1.525 -1.241,2.934 -2.234,4.225c-0.993,1.291 -2.225,2.369 -3.696,3.234c-1.47,0.866 -3.103,1.298 -4.898,1.298c-0.191,0 -0.344,-0.014 -0.459,-0.044Zm83.894,-17.097c0.553,0.132 1.107,0.286 1.661,0.462c0.554,0.176 1.041,0.367 1.461,0.572c0.42,0.206 0.63,0.396 0.63,0.572c0,0.088 -0.038,0.162 -0.114,0.22c-0.153,0.147 -0.287,0.272 -0.401,0.375c-0.115,0.102 -0.23,0.227 -0.344,0.374c-0.726,0.997 -1.48,2.435 -2.263,4.312c-0.783,1.878 -1.528,3.91 -2.235,6.096c-0.706,2.185 -1.336,4.357 -1.89,6.513c-0.554,2.156 -0.965,4.012 -1.232,5.567c-0.077,0.499 -0.038,0.785 0.114,0.858c0.153,0.074 0.44,-0.051 0.86,-0.374c0.84,-0.675 1.623,-1.474 2.349,-2.398c0.726,-0.925 1.394,-1.871 2.005,-2.839c0.611,-0.968 1.165,-1.922 1.662,-2.86c0.215,-0.408 0.416,-0.796 0.603,-1.165c-0.173,-0.467 -0.26,-0.974 -0.26,-1.52c0,-0.704 0.182,-1.335 0.545,-1.892c0.363,-0.558 0.84,-1.027 1.432,-1.409c0.592,-0.381 1.261,-0.674 2.005,-0.88c0.745,-0.205 1.519,-0.308 2.321,-0.308c0.496,0 1.021,0.125 1.575,0.374c0.554,0.25 1.06,0.565 1.519,0.946c0.458,0.382 0.84,0.8 1.145,1.255c0.306,0.454 0.459,0.872 0.459,1.254c-0,0.235 -0.067,0.499 -0.201,0.792c-0.133,0.293 -0.305,0.572 -0.515,0.836c-0.21,0.264 -0.44,0.484 -0.688,0.66c-0.248,0.176 -0.468,0.264 -0.659,0.264c-0.649,0 -1.318,-0.124 -2.005,-0.374c-0.688,-0.249 -1.031,-0.491 -1.031,-0.726c-0,-0.058 0.038,-0.117 0.114,-0.176c0.497,0 0.917,-0.235 1.261,-0.704c0.343,-0.469 0.515,-0.91 0.515,-1.32c0,-0.264 -0.076,-0.492 -0.229,-0.682c-0.153,-0.191 -0.382,-0.286 -0.687,-0.286c-0.344,-0 -0.65,0.102 -0.917,0.308c-0.267,0.205 -0.487,0.454 -0.659,0.748c-0.172,0.293 -0.296,0.587 -0.372,0.88c-0.077,0.293 -0.115,0.543 -0.115,0.748c0,0.587 0.172,1.137 0.516,1.65c0.344,0.514 0.745,1.005 1.203,1.475c0.458,0.469 0.926,0.939 1.404,1.408c0.477,0.469 0.869,0.954 1.174,1.452c1.604,-0.675 2.884,-1.533 3.839,-2.574c0.955,-1.042 1.719,-2.223 2.292,-3.543c0.076,-0.176 0.21,-0.293 0.401,-0.352c0.191,-0.059 0.382,-0.066 0.573,-0.022c0.191,0.044 0.343,0.139 0.458,0.286c0.114,0.147 0.134,0.308 0.057,0.484c-0.726,1.672 -1.661,3.066 -2.807,4.181c-1.146,1.115 -2.578,2.024 -4.297,2.728c0.153,0.969 -0.029,1.834 -0.545,2.597c-0.515,0.763 -1.231,1.416 -2.148,1.958c-0.917,0.543 -1.948,0.954 -3.094,1.233c-1.146,0.278 -2.273,0.418 -3.38,0.418c-0.917,-0 -1.69,-0.132 -2.321,-0.396c-0.63,-0.264 -1.107,-0.594 -1.432,-0.991c-0.325,-0.396 -0.477,-0.836 -0.458,-1.32c0.015,-0.376 0.139,-0.739 0.373,-1.088c-0.263,0.301 -0.531,0.591 -0.803,0.868c-0.764,0.778 -1.547,1.416 -2.349,1.915c-0.802,0.498 -1.623,0.748 -2.464,0.748c-0.802,-0 -1.413,-0.147 -1.833,-0.44c-0.42,-0.294 -0.716,-0.653 -0.888,-1.079c-0.172,-0.425 -0.258,-0.887 -0.258,-1.386c0,-0.499 0.019,-0.968 0.057,-1.408l0.008,-0.071c-0.472,0.618 -0.961,1.192 -1.469,1.721c-0.744,0.778 -1.518,1.416 -2.32,1.915c-0.802,0.498 -1.604,0.748 -2.406,0.748c-0.497,-0 -0.946,-0.088 -1.347,-0.264c-0.401,-0.176 -0.745,-0.411 -1.031,-0.705c-0.286,-0.293 -0.497,-0.616 -0.63,-0.968c-0.134,-0.352 -0.182,-0.704 -0.143,-1.056l0.286,-1.672c0.038,-0.059 0.057,-0.162 0.057,-0.308c-0.84,1.349 -1.795,2.516 -2.864,3.498c-1.07,0.983 -2.254,1.475 -3.553,1.475c-1.145,-0 -2.034,-0.257 -2.664,-0.77c-0.63,-0.514 -1.002,-1.167 -1.117,-1.959c-0.12,-0.755 -0.146,-1.563 -0.077,-2.422c-0.75,0.916 -1.527,1.746 -2.329,2.488c-0.841,0.778 -1.681,1.416 -2.521,1.915c-0.841,0.498 -1.643,0.748 -2.407,0.748c-0.802,-0 -1.413,-0.147 -1.833,-0.44c-0.42,-0.294 -0.716,-0.653 -0.888,-1.079c-0.172,-0.425 -0.258,-0.887 -0.258,-1.386c0,-0.499 0.019,-0.968 0.057,-1.408c0.06,-0.516 0.134,-1.055 0.224,-1.617c-0.148,0.216 -0.299,0.432 -0.453,0.649c-0.687,0.968 -1.413,1.841 -2.177,2.618c-0.764,0.778 -1.556,1.416 -2.378,1.915c-0.821,0.498 -1.632,0.748 -2.435,0.748c-0.993,-0 -1.814,-0.242 -2.463,-0.726c-0.649,-0.485 -0.936,-1.02 -0.86,-1.607c0.153,-0.939 0.354,-1.951 0.602,-3.036c0.248,-1.086 0.544,-2.186 0.888,-3.301c0.344,-1.115 0.716,-2.208 1.117,-3.279c0.401,-1.071 0.812,-2.075 1.232,-3.014c-0.649,0.528 -1.308,1.181 -1.977,1.958c-0.668,0.778 -1.327,1.621 -1.976,2.531c-0.649,0.909 -1.261,1.848 -1.834,2.816c-0.572,0.968 -1.088,1.9 -1.546,2.795c-0.459,0.895 -0.831,1.723 -1.118,2.486c-0.286,0.763 -0.448,1.394 -0.487,1.893c0,0.234 -0.067,0.374 -0.2,0.418c-0.134,0.044 -0.296,0.066 -0.487,0.066c-0.344,-0 -0.726,-0.066 -1.146,-0.198c-0.42,-0.132 -0.812,-0.301 -1.175,-0.506c-0.362,-0.206 -0.668,-0.433 -0.916,-0.683c-0.249,-0.249 -0.373,-0.491 -0.373,-0.726c0.115,-1.144 0.325,-2.368 0.63,-3.673c-0.258,0.341 -0.525,0.678 -0.802,1.011c-1.107,1.335 -2.349,2.464 -3.724,3.388c-1.375,0.925 -2.864,1.387 -4.469,1.387c-1.718,-0 -3.122,-0.257 -4.211,-0.77c-1.088,-0.514 -1.9,-1.181 -2.435,-2.003c-0.534,-0.821 -0.84,-1.768 -0.916,-2.838c-0.077,-1.071 0.047,-2.157 0.372,-3.257c0.325,-1.1 0.793,-2.186 1.404,-3.257c0.611,-1.071 1.337,-2.017 2.177,-2.838c0.84,-0.822 1.747,-1.489 2.721,-2.003c0.974,-0.513 1.977,-0.77 3.008,-0.77c0.535,0 1.156,0.125 1.862,0.374c0.707,0.25 1.366,0.58 1.977,0.99c0.611,0.411 1.127,0.866 1.547,1.365c0.42,0.498 0.63,0.983 0.63,1.452c0,1.027 -0.344,1.98 -1.031,2.861c-0.688,0.88 -1.566,1.65 -2.636,2.31c-1.069,0.66 -2.225,1.174 -3.466,1.54c-1.241,0.367 -2.416,0.55 -3.523,0.55c-0.077,1.174 0.143,2.172 0.658,2.993c0.516,0.822 1.442,1.232 2.779,1.232c1.146,0 2.263,-0.396 3.352,-1.188c1.088,-0.792 2.101,-1.768 3.036,-2.927c0.936,-1.158 1.776,-2.383 2.521,-3.674c0.276,-0.478 0.534,-0.935 0.776,-1.373c0.278,-0.778 0.573,-1.545 0.886,-2.302c0.515,-1.247 1.079,-2.398 1.69,-3.455c0.191,-0.381 0.458,-0.572 0.802,-0.572c0.267,0 0.583,0.044 0.945,0.132c0.363,0.088 0.726,0.198 1.089,0.33c0.363,0.132 0.688,0.272 0.974,0.418c0.286,0.147 0.525,0.279 0.716,0.396c0.306,0.176 0.363,0.389 0.172,0.639c-0.191,0.249 -0.344,0.491 -0.458,0.726c-0.535,1.056 -1.041,2.185 -1.519,3.388c-0.477,1.203 -0.907,2.406 -1.289,3.609c0.497,-0.851 1.06,-1.731 1.69,-2.64c0.631,-0.91 1.29,-1.79 1.977,-2.641c0.688,-0.851 1.385,-1.628 2.091,-2.332c0.707,-0.705 1.404,-1.277 2.092,-1.717c0.267,-0.205 0.63,-0.308 1.088,-0.308c0.191,0 0.497,0.044 0.917,0.132c0.42,0.088 0.85,0.213 1.289,0.374c0.439,0.162 0.821,0.338 1.146,0.528c0.324,0.191 0.487,0.389 0.487,0.595c-0,0.146 -0.058,0.308 -0.172,0.484c-0.115,0.176 -0.22,0.352 -0.315,0.528c-0.096,0.176 -0.201,0.366 -0.315,0.572c-0.459,0.939 -0.888,1.929 -1.289,2.97c-0.401,1.042 -0.774,2.076 -1.118,3.103c-0.343,1.027 -0.659,2.017 -0.945,2.971c-0.286,0.953 -0.506,1.811 -0.659,2.574c-0.076,0.323 -0.038,0.514 0.115,0.572c0.152,0.059 0.382,-0.029 0.687,-0.264c0.879,-0.675 1.7,-1.474 2.464,-2.398c0.764,-0.924 1.461,-1.885 2.091,-2.883c0.529,-0.837 1.017,-1.663 1.465,-2.479c0.081,-0.331 0.166,-0.663 0.254,-0.998c0.325,-1.232 0.668,-2.479 1.031,-3.74c0.363,-1.262 0.735,-2.494 1.117,-3.697l-1.26,0c-0.267,0 -0.611,-0.007 -1.031,-0.022c-0.421,-0.015 -0.841,-0.051 -1.261,-0.11c-0.42,-0.059 -0.802,-0.169 -1.146,-0.33c-0.343,-0.161 -0.592,-0.389 -0.745,-0.682c-0.19,-0.352 -0.019,-0.528 0.516,-0.528c0.955,-0 1.891,-0.037 2.808,-0.11c0.916,-0.074 1.833,-0.154 2.75,-0.242c0.191,-0.587 0.382,-1.159 0.573,-1.717c0.191,-0.557 0.439,-1.1 0.744,-1.628c0.573,-1.086 1.127,-1.628 1.662,-1.628c0.267,-0 0.668,0.058 1.203,0.176c0.535,0.117 1.05,0.271 1.547,0.462c0.497,0.19 0.936,0.388 1.318,0.594c0.382,0.205 0.573,0.396 0.573,0.572c-0,0.059 -0.058,0.132 -0.172,0.22c-0.036,0.028 -0.063,0.055 -0.082,0.083l-0.008,0.011c-0.019,0.027 -0.046,0.055 -0.082,0.082c-0.191,0.176 -0.344,0.345 -0.458,0.506c-0.115,0.162 -0.211,0.345 -0.287,0.55c-0.115,0.235 -0.22,0.455 -0.315,0.66c-0.096,0.206 -0.181,0.426 -0.258,0.661c0.879,-0 1.719,0.036 2.521,0.11c0.802,0.073 1.394,0.212 1.776,0.418c0.077,0.029 0.162,0.117 0.258,0.264c0.095,0.146 0.172,0.315 0.229,0.506c0.057,0.19 0.105,0.374 0.143,0.55c0.039,0.176 0.058,0.323 0.058,0.44c-0,0.235 -0.077,0.396 -0.229,0.484l-0.172,0c-0.841,-0.235 -1.748,-0.374 -2.722,-0.418c-0.974,-0.044 -1.9,-0.066 -2.779,-0.066c-0.496,1.291 -0.983,2.648 -1.461,4.071c-0.477,1.423 -0.916,2.824 -1.317,4.203c-0.401,1.379 -0.764,2.699 -1.089,3.96c-0.325,1.262 -0.563,2.392 -0.716,3.389c-0.076,0.499 -0.048,0.785 0.086,0.858c0.134,0.074 0.411,-0.051 0.831,-0.374c0.84,-0.675 1.671,-1.474 2.492,-2.398c0.821,-0.925 1.604,-1.871 2.349,-2.839c0.188,-0.244 0.371,-0.488 0.55,-0.731c0.27,-0.817 0.612,-1.622 1.026,-2.416c0.725,-1.393 1.632,-2.669 2.721,-3.828c1.089,-1.159 2.339,-2.032 3.753,-2.619c0.458,-0.205 0.926,-0.3 1.403,-0.286c0.478,0.015 0.965,0.088 1.461,0.22c0.497,0.132 0.993,0.301 1.49,0.506c0.497,0.206 1.012,0.411 1.547,0.616c0.076,-0.058 0.134,-0.146 0.172,-0.264c0.038,-0.117 0.076,-0.22 0.114,-0.308c0.23,-0.381 0.516,-0.572 0.86,-0.572c0.267,0 0.582,0.044 0.945,0.132c0.363,0.088 0.716,0.198 1.06,0.33c0.344,0.132 0.659,0.272 0.945,0.418c0.287,0.147 0.526,0.279 0.717,0.396c0.305,0.176 0.362,0.389 0.171,0.639c-0.19,0.249 -0.343,0.491 -0.458,0.726c-0.458,0.968 -0.897,1.995 -1.318,3.08c-0.42,1.086 -0.802,2.171 -1.145,3.257c-0.344,1.086 -0.65,2.134 -0.917,3.147c-0.268,1.012 -0.497,1.914 -0.688,2.706c-0.076,0.323 -0.019,0.499 0.172,0.528c0.191,0.03 0.401,-0.044 0.63,-0.22c0.879,-0.675 1.691,-1.474 2.435,-2.398c0.708,-0.879 1.356,-1.79 1.943,-2.735c0.088,-0.482 0.186,-0.979 0.292,-1.49c0.363,-1.746 0.773,-3.506 1.232,-5.281c0.458,-1.775 0.964,-3.506 1.518,-5.193c0.554,-1.687 1.108,-3.191 1.661,-4.511c0.554,-1.32 1.079,-2.377 1.576,-3.169c0.497,-0.792 0.936,-1.188 1.318,-1.188l1.232,0.198Zm7.018,23.699c-0.611,0.117 -1.346,0.168 -2.206,0.154c-0.859,-0.015 -1.614,0.051 -2.263,0.198c-0.649,0.117 -1.088,0.345 -1.318,0.682c-0.229,0.337 -0.286,0.675 -0.171,1.012c0.114,0.338 0.381,0.602 0.802,0.792c0.42,0.191 0.974,0.198 1.661,0.022c0.802,-0.234 1.528,-0.623 2.177,-1.166c0.65,-0.543 1.089,-1.107 1.318,-1.694Zm-30.079,2.2c0.458,0 0.936,-0.242 1.432,-0.726c0.497,-0.484 1.003,-1.1 1.519,-1.848c0.515,-0.748 1.002,-1.585 1.461,-2.509c0.458,-0.924 0.888,-1.819 1.289,-2.684c0.401,-0.866 0.744,-1.651 1.031,-2.355c0.286,-0.704 0.506,-1.232 0.659,-1.584c0.076,-0.205 0.162,-0.403 0.258,-0.594c0.095,-0.191 0.2,-0.374 0.315,-0.55c-0.306,-0.382 -0.764,-0.572 -1.375,-0.572c-0.993,-0 -1.92,0.41 -2.779,1.232c-0.859,0.821 -1.614,1.826 -2.263,3.014c-0.649,1.189 -1.175,2.436 -1.576,3.741c-0.401,1.306 -0.64,2.428 -0.716,3.367c0,0.117 -0.009,0.293 -0.029,0.528c-0.019,0.235 -0.009,0.462 0.029,0.682c0.038,0.22 0.115,0.418 0.229,0.594c0.115,0.176 0.287,0.264 0.516,0.264Zm26.818,-8.106c0.277,0.378 0.571,0.741 0.883,1.087c0.516,0.572 1.022,1.144 1.519,1.716c0.496,0.572 0.802,1.181 0.916,1.827c-0.534,0.088 -1.117,0.146 -1.747,0.176c-0.63,0.029 -1.27,0.073 -1.919,0.132c-0.803,0.058 -1.557,0.205 -2.264,0.44c-0.526,0.174 -0.972,0.439 -1.339,0.792c0.27,-0.338 0.535,-0.691 0.795,-1.056c0.688,-0.969 1.318,-1.929 1.891,-2.883c0.474,-0.789 0.896,-1.532 1.265,-2.231Zm-68.528,-4.7c-0.573,0.322 -1.117,0.77 -1.633,1.342c-0.515,0.572 -0.983,1.21 -1.403,1.914c-0.421,0.704 -0.774,1.453 -1.06,2.245c-0.287,0.792 -0.487,1.555 -0.602,2.288c0.764,0 1.537,-0.205 2.321,-0.616c0.783,-0.411 1.489,-0.946 2.119,-1.606c0.631,-0.66 1.137,-1.416 1.519,-2.267c0.382,-0.85 0.573,-1.716 0.573,-2.596c-0,-0.47 -0.201,-0.77 -0.602,-0.902c-0.401,-0.132 -0.812,-0.066 -1.232,0.198Zm-23.821,1.188c0.535,-0.059 1.108,-0.044 1.719,0.044c0.611,0.088 1.242,0.323 1.891,0.704c1.108,0 2.12,-0.323 3.036,-0.968c0.917,-0.646 1.71,-1.452 2.378,-2.421c0.669,-0.968 1.194,-2.017 1.576,-3.146c0.382,-1.13 0.601,-2.179 0.659,-3.147c0.057,-0.968 -0.067,-1.775 -0.373,-2.42c-0.305,-0.646 -0.821,-0.968 -1.547,-0.968c-0.878,-0 -1.871,0.572 -2.979,1.716c-1.108,1.144 -2.234,2.728 -3.38,4.753c-0.535,0.968 -1.051,1.943 -1.547,2.926c-0.497,0.983 -0.974,1.959 -1.433,2.927Z" style="fill:#334155;"/></g></svg>